<svg width="101" height="101" viewBox="0 0 101 101" fill="none" xmlns="http://www.w3.org/2000/svg">
<circle cx="50.5" cy="50.5" r="50.5" fill="black"/>
<mask id="mask0_615_197" style="mask-type:alpha" maskUnits="userSpaceOnUse" x="20" y="27" width="61" height="56">
<path d="M65.9253 27.4566C66.897 28.3874 67.6876 29.4902 68.2571 30.709C68.6319 31.507 68.8905 32.3545 69.0249 33.2257C69.354 35.4391 65.7095 35.0451 67.5423 38.7691C64.9843 41.8915 59.8245 42.9792 56.057 40.959C49.3132 37.3437 45.3225 27.8744 36.7083 28.0325C33.4871 28.0874 30.3892 29.5688 28.0158 31.7493C25.6424 33.9298 23.9452 36.7661 22.7194 39.7389C19.1834 48.3427 19.4116 58.6177 23.9002 66.8087C24.8462 68.5245 25.9431 70.1527 27.178 71.674C30.9555 76.3562 36.1404 80.6789 42.153 81.9623C51.1369 83.8798 60.1542 79.3823 67.2445 74.2623C73.407 69.8148 78.9849 64.0073 80.4972 56.3057C81.0576 53.326 81.0378 50.2663 80.4389 47.2941C79.1448 40.6128 75.0376 34.8103 69.946 30.4277C68.6926 29.3277 67.3518 28.3313 65.937 27.4482" fill="black"/>
</mask>
<g mask="url(#mask0_615_197)">
<circle cx="46.971" cy="55.929" r="28.4808" fill="black"/>
<mask id="mask1_615_197" style="mask-type:alpha" maskUnits="userSpaceOnUse" x="18" y="27" width="58" height="58">
<circle cx="46.9092" cy="55.8916" r="28.4834" fill="url(#paint0_linear_615_197)"/>
<circle cx="46.9092" cy="55.8916" r="28.4834" stroke="#FF0000"/>
</mask>
<g mask="url(#mask1_615_197)">
<path d="M48.4918 84.2922C50.1679 84.0865 51.825 83.7476 53.4476 83.2787C58.9985 81.6952 61.7423 80.7978 62.2637 80.6394C62.44 80.5532 62.6336 80.5083 62.8299 80.5083C63.0261 80.5083 63.2197 80.5532 63.396 80.6394C63.4962 80.7023 63.6109 80.7383 63.729 80.7439C63.8471 80.7495 63.9646 80.7247 64.0704 80.6717C64.1761 80.6187 64.2665 80.5394 64.3329 80.4413C64.3992 80.3432 64.4393 80.2297 64.4493 80.1116C64.5652 79.1139 65.1813 78.4752 65.7449 77.7521C68.2043 74.5849 70.6269 71.4178 73.0864 68.2771C73.3288 67.9972 73.6265 67.7707 73.9606 67.612C74.1016 67.5724 74.2304 67.4979 74.3352 67.3954C74.4401 67.293 74.5175 67.1657 74.5605 67.0254C74.6035 66.8852 74.6106 66.7363 74.5813 66.5925C74.5519 66.4487 74.487 66.3147 74.3925 66.2026C74.2114 65.8811 74.1222 65.5159 74.1344 65.1469C74.3135 62.2753 74.5206 59.4056 74.7559 56.5375C74.7776 56.195 74.9066 55.868 75.1245 55.6032C75.5458 55.1598 75.4142 54.8589 75.1245 54.4103C74.8185 53.9247 74.601 53.3885 74.482 52.8267C74.2853 52.2191 74.2313 51.5742 74.324 50.9423C74.5874 49.9604 74.0554 49.4273 73.5972 48.7147C72.8652 47.564 72.3333 46.2813 71.7066 45.0619C71.1799 44.0062 70.3373 43.0403 70.1582 41.9423C69.9791 40.8444 69.5104 40.5013 68.7047 39.8889C67.0668 38.6432 65.7343 36.991 64.2755 35.5077C64.1505 35.3844 64.0128 35.2747 63.8647 35.1805C62.1057 34.035 60.3414 32.9054 58.5982 31.7494C58.4354 31.6282 58.3125 31.4609 58.2454 31.2691C58.0347 30.7095 57.6397 30.6092 57.092 30.6515C56.3366 30.7121 55.5775 30.7121 54.8221 30.6515C53.3054 30.5037 51.7886 30.3347 50.2876 30.0867C49.4397 29.9494 48.4654 30.2081 47.7808 29.4057C47.7281 29.3424 47.4595 29.4374 47.3068 29.4955C46.343 29.8544 45.4056 30.435 44.4208 30.5512C43.3949 30.6447 42.3875 30.8847 41.4294 31.2638C39.1831 32.0651 36.8852 32.7123 34.5513 33.201C33.5454 33.4438 32.5658 33.9611 31.4388 33.5705C30.9806 33.4122 30.6119 33.7605 30.5171 34.3359C30.4602 34.7764 30.3015 35.1975 30.0537 35.5658C27.6803 38.7329 25.284 41.8666 22.8649 44.9669C22.3876 45.6101 21.8096 46.1716 21.1533 46.6297C20.5002 47.0625 20.3001 47.3634 20.6266 48.1077C20.7779 48.426 20.857 48.7739 20.8584 49.1264C20.8004 50.1135 20.6319 51.0953 20.5845 52.0824C20.4634 54.3575 20.4107 56.6378 19.8419 58.8601C19.8287 58.9352 19.8287 59.012 19.8419 59.0871C20.1052 60.375 20.3686 61.663 20.6108 62.9615C20.6645 63.3437 20.6248 63.7331 20.495 64.0964C20.3812 64.3094 20.3437 64.5549 20.3888 64.7922C20.4338 65.0295 20.5587 65.2441 20.7425 65.4002C21.1187 65.7024 21.4487 66.058 21.7221 66.4559C22.3383 67.5117 22.907 68.5991 23.4389 69.697C24.1025 71.08 25.1506 72.3046 25.2085 73.9462C25.2085 74.0888 25.5087 74.2418 25.693 74.3474C26.2021 74.5897 26.6932 74.8685 27.1624 75.1814C27.9313 75.8043 28.6475 76.4958 29.3585 77.1873C29.8012 77.5151 30.1618 77.9415 30.4118 78.433C30.6225 79.1509 30.9385 79.4887 31.6705 79.4623C31.8529 79.4378 32.0382 79.475 32.1972 79.5679C33.8245 80.782 35.4361 82.0172 37.0582 83.2312C37.271 83.3909 37.5213 83.4927 37.7849 83.5268L38.2431 83.5638C38.6153 83.5849 38.9892 83.5849 39.3649 83.5638C40.3497 83.5374 43.1199 83.8858 44.6735 84.0547C45.4319 84.1391 46.5432 84.25 47.9072 84.3503L48.4918 84.2922ZM72.7019 48.2924L73.7079 51.4173L73.5235 51.4807L72.4176 48.3874L72.7019 48.2924ZM68.7942 43.7898C68.9259 43.3095 69.1418 42.8502 69.384 42.2062C70.8955 46.3288 72.3543 50.3035 73.8079 54.2783L73.6025 54.4631C72.8494 54.2097 72.091 53.9616 71.3379 53.6924C70.1424 53.2648 68.9574 52.8214 67.7672 52.3833C67.6076 52.3486 67.4576 52.2792 67.3277 52.18C67.1978 52.0808 67.0911 51.9543 67.0153 51.8094C66.9395 51.6644 66.8963 51.5045 66.8888 51.341C66.8813 51.1775 66.9097 51.0144 66.972 50.8631C67.5355 48.5141 68.1306 46.1599 68.752 43.8056L68.7942 43.7898ZM56.8339 66.7463C56.8919 65.8067 57.1289 65.6906 57.9978 66.0073C58.4741 66.1407 58.9601 66.236 59.4514 66.2923C61.6001 66.7727 63.7489 67.253 65.8923 67.7598C66.2251 67.8968 66.5399 68.0741 66.8298 68.2876H68.2043C68.0413 68.4939 67.8654 68.6896 67.6777 68.8735C64.6512 71.3545 61.6194 73.8301 58.5824 76.3005C57.9662 76.8283 57.8451 76.7914 57.6239 76.0471C57.5093 75.6333 57.4369 75.2088 57.408 74.7803C57.242 73.6498 57.1698 72.5075 57.1921 71.365C57.2869 69.792 56.697 68.3193 56.7918 66.7621L56.8339 66.7463ZM28.5791 51.4384C29.901 50.4566 31.2123 49.4801 32.5764 48.5247C32.8765 48.3083 33.2663 48.2238 33.577 47.9968C33.8877 47.7698 33.9614 47.5429 34.1932 47.3687C35.3939 46.466 36.6052 45.5845 37.8218 44.6977C38.2905 44.3546 38.7645 44.0115 39.2596 43.7001C39.4334 43.5945 39.7177 43.4942 39.8547 43.5681C39.9916 43.642 40.0548 43.9376 40.1443 44.1329L40.0285 44.1646L39.9389 51.317C39.9389 53.4285 39.9389 55.5821 39.8915 57.7146C39.8915 58.6595 39.6914 58.7704 38.8698 58.3375C35.4624 56.6273 32.0234 54.9381 28.6475 53.2068C27.4573 52.5786 27.4573 52.2724 28.5369 51.4701L28.5791 51.4384ZM31.2966 66.8888C33.0135 65.548 34.7093 64.1703 36.4104 62.8085C37.3583 62.0484 38.2958 61.2724 39.2648 60.5387C39.8336 60.1006 40.0127 60.185 40.1601 60.9135C40.3497 61.8478 40.3603 62.3651 40.5077 63.0249C40.568 63.2791 40.6437 63.5294 40.7342 63.7744C40.7658 63.9328 40.8185 64.2178 40.8764 64.5662C40.9659 65.0941 41.008 65.5058 41.0238 65.6219C41.4873 67.934 41.8928 70.2565 42.3089 72.5791C42.4089 73.1439 42.4458 73.7193 42.5248 74.4319C42.2798 74.3619 42.0404 74.2736 41.8086 74.1679C39.4439 72.8325 37.0687 71.5287 34.7462 70.1246C33.6402 69.4383 32.4868 68.8577 31.3703 68.2032C30.7015 67.7703 30.712 67.3533 31.2966 66.8888ZM55.7701 61.8108C55.2434 59.7663 54.7256 57.7217 54.2165 55.6771C53.911 54.4736 53.6319 53.2595 53.3264 52.056C53.179 51.4596 53.416 51.0953 53.99 51.1481C55.5384 51.3012 57.0762 51.5493 58.6245 51.7182C59.5567 51.8238 60.4942 51.8449 61.4316 51.9293C62.4849 52.0191 63.5013 52.1405 64.5388 52.2619C65.234 52.3411 65.4184 52.737 64.9918 53.3176C62.4849 56.629 59.9728 59.9316 57.4554 63.2255L56.7655 64.1123L56.4389 64.1545C56.2283 63.3627 55.9807 62.592 55.7806 61.8108H55.7701ZM55.7701 64.1545C55.4962 64.2337 55.2434 64.3973 55.0802 64.3392C53.5898 63.8483 52.1151 63.3152 50.63 62.7926C48.3443 61.9833 46.0621 61.1721 43.7835 60.3592C43.0936 60.1111 42.4089 59.8314 41.7348 59.5569C41.2082 59.3404 41.2082 59.029 41.7348 58.6278L46.7801 55.0595C48.318 53.9774 49.8453 52.8848 51.3936 51.8079C52.1362 51.2801 52.5312 51.4596 52.7471 52.3358C53.4423 55.2073 54.1322 58.0789 54.8537 60.9451C55.117 61.9533 55.433 62.9299 55.7806 64.1545H55.7701ZM64.7653 51.639C63.3328 51.4807 61.9056 51.3012 60.4678 51.1112C59.0301 50.9211 57.6028 50.7997 56.1651 50.6572C55.8122 50.6203 55.4541 50.6572 55.1118 50.6255C53.5002 50.4725 53.1368 49.839 53.6214 48.3558C54.1059 46.8725 54.4166 45.4262 54.8116 43.964C55.2066 42.5018 55.57 41.1716 55.9702 39.7781C56.0975 39.4757 56.2527 39.1859 56.4337 38.9124C59.4725 43.1722 62.3796 47.2631 65.3499 51.4332C65.0497 51.5598 64.9075 51.6549 64.7758 51.639H64.7653ZM55.5015 39.4983C55.1223 40.9711 54.6852 42.4332 54.2744 43.8954C53.8636 45.3575 53.4791 46.7247 53.0631 48.1182C52.9587 48.5097 52.8159 48.8899 52.6365 49.2531C52.591 49.3538 52.5231 49.4427 52.438 49.513C52.3529 49.5833 52.2529 49.6331 52.1456 49.6586C52.0383 49.6841 51.9265 49.6846 51.819 49.66C51.7115 49.6355 51.611 49.5866 51.5253 49.517C49.2659 48.0549 47.0224 46.5611 44.7683 45.0831C43.8783 44.4971 42.983 43.927 42.0877 43.3517L41.403 42.9188V42.6444C41.7928 42.4966 42.1719 42.3118 42.5669 42.1957C44.7315 41.5623 46.896 40.9288 49.0711 40.3323C50.1244 40.0473 51.1777 39.8731 52.231 39.6039C53.1105 39.3769 53.9689 39.076 54.8642 38.8227C55.5226 38.6485 55.6964 38.7699 55.5226 39.4772L55.5015 39.4983ZM41.7454 43.8373C44.8386 45.8396 47.9247 47.8473 51.0039 49.8602C51.7359 50.3405 51.7307 50.9159 51.0039 51.4437L41.8296 57.873C41.7032 57.9627 41.5716 58.0419 41.4452 58.1264C40.9712 58.4325 40.6763 58.3692 40.6763 57.7358L40.7079 53.0801H40.6763C40.6763 51.2537 40.7131 49.4273 40.7079 47.6062C40.7079 46.5505 40.6236 45.4684 40.6341 44.4021C40.6328 44.0864 40.7558 43.7829 40.9764 43.5575C41.087 43.4625 41.5136 43.6631 41.7559 43.8162L41.7454 43.8373ZM41.8033 65.9492C41.461 64.0384 41.087 62.1328 40.75 60.2272L40.9449 60.0108C41.9613 60.3592 42.983 60.7023 43.9942 61.0665C47.0031 62.1469 50.0085 63.236 53.0104 64.334C53.5371 64.5346 54.0637 64.7879 54.6272 65.0096C55.4436 65.3422 55.4646 65.4425 54.7484 66.0126C53.6687 66.8624 52.5786 67.6964 51.4884 68.5304C49.6486 69.938 47.8071 71.3334 45.9638 72.7163C45.3319 73.1914 44.6788 73.6295 44.031 74.0835C43.5044 74.4319 43.2727 74.3105 43.1673 73.6823C42.7302 71.08 42.2773 68.504 41.8296 65.9281L41.8033 65.9492ZM46.1692 73.3392C47.5122 72.2835 48.8709 71.2806 50.2192 70.246C51.4621 69.2905 52.6576 68.2612 53.9637 67.4061C54.476 67.0919 54.9637 66.739 55.4225 66.3504C55.4962 66.2818 55.9491 66.4348 55.9965 66.5615C56.1339 67.0003 56.2188 67.454 56.2493 67.9128C56.3757 69.4964 56.4653 71.1064 56.5864 72.7005C56.6707 73.8143 56.8181 74.9228 56.8708 76.0365C56.9182 77.0395 56.7707 77.182 55.8175 77.0342C53.9215 76.7544 52.0309 76.4166 50.1349 76.1052L44.8684 75.2553C44.6999 75.2289 44.5366 75.1603 44.0995 75.0336C44.9105 74.358 45.5162 73.8196 46.1798 73.3128L46.1692 73.3392ZM67.5987 67.5328C64.6705 66.8624 61.7423 66.1762 58.8089 65.5375C56.9708 65.1363 56.8866 65.0413 58.0084 63.5369C60.4942 60.1956 63.0273 56.8859 65.55 53.5657C65.6856 53.429 65.8338 53.3053 65.9924 53.1962C66.1715 53.9141 66.3558 54.4895 66.4506 55.0807C66.814 57.361 67.1247 59.6466 67.5039 61.9428C67.7409 63.3627 68.0621 64.7668 68.3307 66.1656C68.384 66.4402 68.4035 66.7203 68.3887 66.9996C68.3676 67.4905 68.0779 67.6331 67.6355 67.5222L67.5987 67.5328ZM68.3729 62.8665C68.3729 62.7662 68.3097 62.6184 68.3729 62.5709C69.0417 61.8478 68.5045 61.341 68.1622 60.7023C67.9422 60.1075 67.8126 59.4829 67.7778 58.8495C67.4354 57.0337 67.0878 55.2179 66.7245 53.4021C66.6455 52.9639 67.0036 52.7686 67.5724 52.9798C68.5045 53.3176 69.4261 53.6924 70.3531 54.0355C71.1536 54.3416 71.933 54.6478 72.7704 54.9329C73.7763 55.2865 73.9132 55.5979 73.5025 56.585C72.6967 58.5328 71.9225 60.4912 71.0904 62.4337C70.5111 63.8061 69.8896 65.1627 69.2892 66.5246H69.0733C68.91 65.7433 68.7415 64.941 68.5888 64.1809C68.5203 63.7533 68.4571 63.3046 68.3834 62.856L68.3729 62.8665ZM68.4993 42.2168C68.1938 43.5259 67.8673 44.8297 67.5355 46.1282C67.2037 47.4267 66.835 48.7675 66.4822 50.103C66.3377 50.4865 66.1725 50.8618 65.9871 51.2273L56.9024 38.6168C57.803 38.7646 58.4823 38.828 59.1091 38.981C60.8575 39.398 62.5955 39.8678 64.344 40.2796C65.5395 40.5593 66.756 40.7652 67.9621 41.0186C68.6888 41.1558 68.6256 41.6942 68.5098 42.2062L68.4993 42.2168ZM57.3237 32.916C57.4343 32.2086 57.7872 32.0344 58.3402 32.4884C60.1308 33.94 61.9003 35.4233 63.6909 36.8802C64.6336 37.6456 65.6027 38.3687 66.5454 39.1236C66.914 39.4191 67.2564 39.7464 67.7093 40.1423C66.8719 40.0367 66.182 39.9945 65.5131 39.852C62.9396 39.303 60.3695 38.7365 57.803 38.1523C57.435 38.0415 57.1223 37.7958 56.9271 37.4641C56.7318 37.1325 56.6685 36.7392 56.7497 36.3629C56.955 35.2069 57.1447 34.0561 57.3342 32.9054L57.3237 32.916ZM45.6162 30.6462L52.3153 30.6884V30.9787L45.6162 30.9365V30.6462ZM44.3154 31.4696L50.5141 31.5119C52.1994 31.5119 53.8899 31.5119 55.5752 31.5435C56.8129 31.5435 56.9498 31.8022 56.7075 33.0321C56.4863 34.1406 56.3652 35.2702 56.2125 36.3945C56.0913 37.3077 55.6226 37.5717 54.8011 37.1441C53.4476 36.4473 52.1046 35.7294 50.7564 35.0327L44.7631 31.9078C44.5893 31.818 44.4208 31.7072 44.2364 31.6069L44.3154 31.4696ZM43.852 31.9975C45.4319 32.8157 47.0119 33.6127 48.5918 34.4309C50.5931 35.4866 52.5944 36.5159 54.5904 37.5664C54.7704 37.7004 54.9379 37.8506 55.0907 38.0151C54.0058 38.3054 53.1316 38.886 52.0888 38.4743C52.0178 38.4559 51.9433 38.456 51.8724 38.4745C51.8015 38.493 51.7364 38.5292 51.6833 38.5799C51.283 39.3294 50.5352 39.435 49.8295 39.6356L41.0028 42.0637C40.9458 41.7344 40.9316 41.399 40.9607 41.0661C41.2082 39.9259 41.5136 38.7963 41.777 37.6614C41.9297 36.9963 42.035 36.3206 42.1719 35.6503C42.3879 34.5946 42.6038 33.5758 42.8355 32.5412C42.8498 32.428 42.8911 32.3199 42.9561 32.2261C43.0211 32.1324 43.1077 32.0558 43.2086 32.0029C43.3095 31.95 43.4217 31.9224 43.5355 31.9224C43.6494 31.9223 43.7616 31.9499 43.8625 32.0028L43.852 31.9975ZM42.272 31.9975C42.2954 32.2679 42.2954 32.5399 42.272 32.8104C41.856 34.6157 41.4188 36.4104 40.9975 38.2156C40.7763 39.1552 40.6078 40.1054 40.3603 41.0397C40.1391 41.8684 39.8336 42.0109 39.0226 41.7312C37.253 41.1241 35.4887 40.4907 33.7139 39.8837C33.0187 39.6461 32.2972 39.4878 31.6073 39.245C31.507 39.2029 31.4161 39.141 31.3401 39.063C31.2641 38.9851 31.2045 38.8925 31.1649 38.791C31.1333 38.7065 31.3651 38.469 31.523 38.374C34.7778 36.3963 38.0412 34.4256 41.3135 32.462C41.5452 32.3142 41.8296 32.2297 42.272 32.0239V31.9975ZM33.7034 33.94C35.5677 33.4913 37.3899 32.916 39.2596 32.4145C39.5672 32.3409 39.8912 32.3822 40.1707 32.5306L30.6278 38.2579C30.8753 35.9406 31.4809 34.4995 33.7034 33.9664V33.94ZM31.4915 39.8098C32.9977 40.306 34.4881 40.8655 35.9891 41.3564C36.8475 41.6467 37.7165 41.8842 38.5644 42.201C38.8105 42.3036 39.0122 42.4907 39.1332 42.7288C39.1858 42.8291 38.9699 43.1353 38.8119 43.2567C37.2899 44.3546 35.7415 45.4209 34.2195 46.5241C32.5816 47.7223 30.9701 48.9575 29.3322 50.1663C28.6633 50.6572 27.9734 51.1059 27.1624 51.6654L28.8319 44.6977C29.1637 43.3095 29.4797 41.9212 29.8378 40.5435C30.0221 39.8573 30.6804 39.567 31.4915 39.8362V39.8098ZM30.2117 36.289C29.5586 39.4192 27.2308 41.2614 24.9715 43.1511L30.2117 36.289ZM22.5489 46.5663C24.4185 44.8086 26.2987 43.0666 28.163 41.2878C28.5053 40.9658 28.8108 40.6068 29.1321 40.2637L29.3269 40.4115C28.7739 42.4807 28.2051 44.5499 27.6732 46.6244C27.3046 48.0443 26.9939 49.4801 26.6463 50.9053C26.4567 51.676 26.1986 51.7499 25.6351 51.2273C24.5818 50.2613 23.5285 49.3059 22.5226 48.3294C22.3887 48.2239 22.281 48.0889 22.2077 47.9349C22.1345 47.7808 22.0977 47.6119 22.1002 47.4413C22.1028 47.2707 22.1446 47.103 22.2224 46.9512C22.3003 46.7994 22.412 46.6677 22.5489 46.5663V46.5663ZM21.4956 62.2701C21.8116 57.778 21.3587 53.2965 21.4956 48.7886L21.8169 48.6778C22.0486 48.8519 22.2908 49.0103 22.5015 49.2056C23.3178 49.934 24.1447 50.6519 24.9294 51.412C25.8932 52.3516 26.009 53.1381 25.456 54.3364C24.3659 56.7381 23.2862 59.1451 22.1908 61.5469C22.0567 61.8096 21.909 62.065 21.7484 62.3123L21.4956 62.2701ZM22.0486 63.5264C22.333 62.6871 22.7385 61.89 23.1019 61.0824C24.0709 58.9287 25.0452 56.7856 26.0248 54.6372C26.1354 54.3944 26.2776 54.1622 26.5146 53.7293C27.1097 56.4689 27.768 58.9498 28.1472 61.4677C28.3737 62.9932 28.9688 64.4079 29.1321 65.9281C29.1477 66.2434 29.1371 66.5594 29.1004 66.873C28.8163 66.8643 28.5338 66.8254 28.2578 66.7568C26.2355 66.0548 24.2184 65.3527 22.2277 64.5715C22.0486 64.4765 21.9485 63.8114 22.0486 63.5052V63.5264ZM24.5765 70.2407L24.7292 70.1246L28.5001 75.2817C26.5567 74.0729 25.5034 72.1726 24.5765 70.2196V70.2407ZM30.6383 77.0606L27.8049 73.2442C26.9043 72.0248 26.1354 70.7105 25.1716 69.5492C24.2079 68.3879 23.3126 66.9838 22.3962 65.6958L22.5173 65.5005C23.9919 66.0284 25.4613 66.5562 26.9359 67.0524C27.7417 67.3322 28.6581 67.4325 29.111 68.2929C29.4531 68.8403 29.7055 69.4391 29.8588 70.0665C30.1748 72.104 30.3855 74.1521 30.6488 76.1949C30.6954 76.4564 30.7551 76.7154 30.8279 76.9709L30.6383 77.0606ZM31.4019 76.9972C31.2545 75.8993 31.1281 74.7961 30.9701 73.6929C30.791 72.4419 30.5751 71.1908 30.4066 69.9345C30.3773 69.4317 30.3773 68.9277 30.4066 68.4249L41.8665 74.9544V75.1761C40.7658 75.3662 39.8283 76.2002 38.5854 75.8624C38.4433 75.8201 38.1589 75.8624 38.122 75.9521C37.7533 76.7756 36.9423 76.7228 36.2629 76.9233C35.099 77.277 33.9351 77.6465 32.766 77.9791C31.9233 78.1691 31.5231 77.8629 31.4019 76.9761V76.9972ZM43.1515 83.474C42.8882 83.4424 42.6249 83.4212 42.3668 83.379C41.1976 83.1837 40.0179 83.0148 38.8593 82.7667C38.4704 82.6334 38.1018 82.4469 37.7639 82.2125C37.3217 82.1271 36.8918 81.9871 36.4841 81.7955C35.7614 81.335 35.0966 80.7892 34.5039 80.1697L43.1726 83.3368L43.1515 83.474ZM32.8449 78.8922C33.4875 78.2113 37.9956 77.0606 38.5486 77.4301C38.6908 76.7333 39.2596 76.9022 39.7335 76.7861C40.3761 76.6277 40.9659 76.2582 41.6084 76.0735C42.5511 75.8096 43.1199 76.1104 43.5518 77.0131C44.4365 78.8711 45.3213 80.7081 46.185 82.5978C46.3515 83.0156 46.4957 83.442 46.6169 83.8752L32.8449 78.8922ZM48.1916 83.6429C47.7913 83.8805 47.4279 83.6007 47.2225 83.1679C46.5695 81.7638 45.9059 80.365 45.2423 78.945C44.8789 78.1902 44.4997 77.4406 44.1469 76.6805C44.0366 76.3643 43.9451 76.0417 43.873 75.7146L56.1651 77.8735L56.2125 78.0794C55.6858 78.4594 55.1592 78.85 54.5957 79.2301C53.3791 80.0852 52.1678 80.9403 50.946 81.7849C50.0349 82.4078 49.1395 83.057 48.1916 83.6166V83.6429ZM50.0928 83.3949L50.0296 83.2523L54.2059 80.3016C54.6997 80.0406 55.1596 79.7197 55.5752 79.3462C56.2862 78.4911 57.329 78.6758 58.2085 78.4541C58.7351 78.3169 59.4408 78.7972 60.0623 79.0084C60.7733 79.2459 61.479 79.4993 62.1689 79.7421L62.1952 80.0007L50.0928 83.3949ZM64.739 76.0049C64.7822 76.085 64.8088 76.1732 64.8169 76.2639C64.8251 76.3547 64.8147 76.4461 64.7864 76.5327C64.5178 77.2189 64.2281 77.8946 63.9121 78.5597C63.8284 78.7931 63.6574 78.9847 63.4353 79.0941C63.2132 79.2034 62.9574 79.2219 62.7219 79.1456C61.4369 78.7603 60.1571 78.338 58.8826 77.9052C58.356 77.7362 58.3191 77.4301 58.7457 77.0817C59.799 76.2107 60.8523 75.3503 61.9056 74.4794L65.3552 71.6078L67.2932 69.9979C67.4723 69.8448 67.6724 69.7181 67.8673 69.5809L67.9726 69.6864C67.2774 71.175 66.6033 72.6688 65.866 74.1363C65.7014 74.389 65.4535 74.5759 65.1656 74.6641C64.4756 74.8911 64.3124 75.3345 64.739 75.9679V76.0049ZM65.5605 76.9867L65.4131 76.9022C65.8555 75.9468 66.3031 74.9967 66.735 74.0412C67.1668 73.0858 67.6197 72.0776 68.0621 71.0958C68.4129 70.2735 68.9251 69.5303 69.5683 68.9105C70.3952 68.124 71.3432 67.9339 72.2753 67.5592C72.4133 67.5384 72.5535 67.5384 72.6914 67.5592L65.5605 76.9867ZM73.3971 65.5164C73.3392 66.0442 72.6493 66.6354 72.1015 66.931C71.4327 67.2952 70.6111 67.3744 69.5842 67.6489C71.0219 64.2812 72.3701 61.1088 73.7236 57.9416L73.8711 57.9997C73.7342 60.4701 73.6604 62.9827 73.3971 65.4794V65.5164ZM29.2848 54.2255L38.1957 58.6754C38.38 58.7616 38.5562 58.8641 38.7224 58.9815C39.3017 59.4355 39.2964 59.7047 38.7224 60.1586C36.0891 62.2437 33.4822 64.3393 30.8542 66.4137C30.2328 66.8994 29.9589 66.7727 29.8009 65.9756C29.2216 63.1604 28.644 60.3346 28.0682 57.4982C27.826 56.3053 27.5942 55.1123 27.3625 53.9141C27.3502 53.7383 27.3502 53.562 27.3625 53.3862C28.063 53.6343 28.6633 53.8877 29.2848 54.1886V54.2255Z" fill="#FF0000"/>
</g>
<circle cx="46.971" cy="55.929" r="28.4808" fill="url(#paint1_radial_615_197)"/>
</g>
<path d="M68.923 71.6099C70.8395 67.7632 71.8574 63.5314 71.9 59.234C71.9899 52.0204 69.3306 45.0431 64.4622 39.7194C63.7453 37.8603 63.9652 38.4705 65.7108 37.8021C66.0922 37.6561 64.1959 33.4481 64.668 33.0355C64.7086 33 64.5834 32.7001 64.668 32.7375L64.668 32.4628L68.7996 35.9164C73.8815 41.0368 76.8221 47.9008 77.0231 55.1122C77.1563 59.4075 76.3122 63.677 74.5546 67.5986C74.5546 67.5986 72.5868 70.1365 70.4029 72.5093C69.0465 73.9831 68.1556 75.8319 65.9342 75.6375L68.923 71.6099Z" fill="black"/>
<path d="M64.9111 31.3062C63.4122 37.8626 55.7221 34.3022 51.9503 32.1583C48.4209 30.152 45.2239 27.6361 42.0564 25.1111C40.4264 23.8122 39.0515 22.6248 37.0524 21.965C35.1036 21.3205 32.9959 20.9762 30.969 21.4499C28.2461 22.0792 26.0575 24.0567 24.133 26.0783C18.116 32.3876 13.1919 40.2806 12.5938 48.9881C12.0981 56.2079 14.645 63.2893 18.389 69.3604C21.7504 74.8103 25.9013 79.6301 31.4252 82.9803C42.9105 89.9457 56.6498 85.6454 66.3641 77.5267C66.9796 77.0126 67.5783 76.4819 68.1602 75.9348C70.6407 73.6148 72.9271 71.0997 74.6999 68.1891C75.1938 67.3801 75.6536 66.5253 75.8234 65.5824C75.8961 65.1716 75.7255 64.6943 75.2351 64.9945C75.0797 65.1045 74.9468 65.2434 74.8436 65.4035C74.5646 65.7738 74.2727 66.1301 73.968 66.4723C72.2617 68.3995 70.171 69.9527 68.1791 71.5815C65.942 73.4072 63.4365 75.0018 60.9147 76.3995C60.2963 76.7417 59.6697 77.0713 59.0351 77.3883C54.3553 79.7065 48.9068 81.2157 43.6433 80.0921C38.2657 78.9434 33.6299 75.0755 30.2505 70.8849C29.1488 69.5233 28.1706 68.0662 27.3274 66.5307C23.3122 59.2003 23.1065 50.0047 26.2659 42.3112C27.3624 39.6451 28.8801 37.1058 31.0031 35.1552C33.1261 33.2046 35.8957 31.8779 38.7767 31.8293C46.4811 31.6882 50.05 40.162 56.0814 43.398C61.0117 46.0434 68.6093 42.7319 67.6789 36.4766C67.5591 35.697 67.328 34.9387 66.9928 34.2249C66.4846 33.1342 65.7788 32.1473 64.9111 31.3143" fill="url(#paint2_linear_615_197)"/>
<path d="M81.1211 34.6013V29.2198C81.1508 28.8881 81.2554 28.5675 81.4269 28.282C81.5985 27.9966 81.8325 27.7537 82.1115 27.5716C83.4676 26.6885 85.2795 27.626 85.437 29.2198V32.9043L85.5083 32.9756H89.194C89.5255 33.0056 89.8459 33.1101 90.1314 33.2812C90.4169 33.4523 90.66 33.6856 90.8427 33.9637C91.7206 35.3269 90.7827 37.1326 89.194 37.2901H85.2982C81.2168 37.2976 81.1211 34.7325 81.1211 34.7325V34.6013Z" fill="url(#paint3_linear_615_197)"/>
<path d="M85.7549 35.7083L85.7549 41.0897C85.7251 41.4214 85.6206 41.7421 85.449 42.0275C85.2775 42.313 85.0435 42.5559 84.7645 42.7379C83.4084 43.6211 81.5965 42.6835 81.4389 41.0897L81.4389 37.4052L81.3677 37.334L77.682 37.334C77.3505 37.3039 77.03 37.1995 76.7446 37.0284C76.4591 36.8573 76.2159 36.624 76.0332 36.3458C75.1554 34.9827 76.0933 33.177 77.682 33.0195L81.5777 33.0195C85.6592 33.012 85.7549 35.577 85.7549 35.577L85.7549 35.7083Z" fill="url(#paint4_linear_615_197)"/>
<defs>
<linearGradient id="paint0_linear_615_197" x1="75.8399" y1="42.2715" x2="27.0562" y2="64.6152" gradientUnits="userSpaceOnUse">
<stop stop-color="#E2272A"/>
<stop offset="1" stop-color="#FF0105"/>
</linearGradient>
<radialGradient id="paint1_radial_615_197" cx="0" cy="0" r="1" gradientUnits="userSpaceOnUse" gradientTransform="translate(31.7475 60.1445) rotate(-22.8079) scale(40.1559 59.2794)">
<stop stop-opacity="0"/>
<stop offset="1"/>
</radialGradient>
<linearGradient id="paint2_linear_615_197" x1="58.7478" y1="49.0355" x2="-55.5805" y2="4.76746" gradientUnits="userSpaceOnUse">
<stop offset="0.00115221" stop-color="#FC0039"/>
<stop offset="1" stop-color="#FC00AF"/>
</linearGradient>
<linearGradient id="paint3_linear_615_197" x1="88.6443" y1="28.8632" x2="79.7459" y2="36.6133" gradientUnits="userSpaceOnUse">
<stop stop-color="#FF4D01"/>
<stop offset="1" stop-color="#E000A1"/>
</linearGradient>
<linearGradient id="paint4_linear_615_197" x1="77.021" y1="42.4465" x2="87.1167" y2="33.6804" gradientUnits="userSpaceOnUse">
<stop stop-color="#E000A1"/>
<stop offset="1" stop-color="#FF4D01"/>
</linearGradient>
</defs>
</svg>
